<svg width="90" height="54" viewBox="0 0 90 54" fill="none" xmlns="http://www.w3.org/2000/svg">
<path d="M25.5403 19.703C25.5403 20.8005 25.6589 21.6904 25.8665 22.343C26.1038 22.9956 26.4005 23.7075 26.8157 24.4787C26.9641 24.716 27.0234 24.9533 27.0234 25.1609C27.0234 25.4575 26.8454 25.7542 26.4598 26.0508L24.5911 27.2966C24.3241 27.4746 24.0571 27.5636 23.8198 27.5636C23.5232 27.5636 23.2266 27.4153 22.9299 27.1483C22.5147 26.7034 22.1587 26.2288 21.8621 25.7542C21.5655 25.2499 21.2688 24.6863 20.9426 24.0041C18.6289 26.733 15.7219 28.0975 12.2218 28.0975C9.7301 28.0975 7.74271 27.3856 6.28924 25.9618C4.83577 24.538 4.09421 22.6396 4.09421 20.2666C4.09421 17.7453 4.98409 15.6986 6.7935 14.1561C8.60292 12.6136 11.0056 11.8424 14.0608 11.8424C15.0694 11.8424 16.1076 11.9314 17.2051 12.0797C18.3026 12.228 19.4298 12.4653 20.6163 12.7323V10.5669C20.6163 8.31257 20.1417 6.74045 19.2221 5.82091C18.2729 4.90137 16.6711 4.45643 14.3871 4.45643C13.3489 4.45643 12.2811 4.57508 11.1836 4.84205C10.086 5.10901 9.0182 5.4353 7.98001 5.85058C7.5054 6.05821 7.14945 6.17686 6.94182 6.23619C6.73418 6.29552 6.58586 6.32518 6.46721 6.32518C6.05194 6.32518 5.8443 6.02855 5.8443 5.40564V3.95217C5.8443 3.47757 5.90363 3.12162 6.05194 2.91398C6.20025 2.70634 6.46721 2.4987 6.88249 2.29107C7.92068 1.75714 9.16651 1.3122 10.62 0.956249C12.0734 0.570636 13.6159 0.39266 15.2473 0.39266C18.7772 0.39266 21.3578 1.19355 23.0189 2.79533C24.6504 4.39711 25.4809 6.82944 25.4809 10.0923V19.703H25.5403ZM13.4972 24.2117C14.4761 24.2117 15.4846 24.0337 16.5525 23.6778C17.6203 23.3218 18.5695 22.6693 19.3704 21.7794C19.845 21.2158 20.201 20.5929 20.379 19.881C20.5569 19.1691 20.6756 18.3089 20.6756 17.3003V16.0545C19.8154 15.8469 18.8958 15.6689 17.9466 15.5502C16.9974 15.4316 16.0779 15.3723 15.1584 15.3723C13.171 15.3723 11.7175 15.7579 10.7386 16.5588C9.75976 17.3597 9.28516 18.4868 9.28516 19.97C9.28516 21.3641 9.64111 22.4023 10.3827 23.1142C11.0946 23.8558 12.1328 24.2117 13.4972 24.2117ZM37.3163 27.4153C36.7824 27.4153 36.4264 27.3263 36.1891 27.1187C35.9518 26.9407 35.7442 26.5254 35.5662 25.9618L28.5955 3.03263C28.4175 2.43938 28.3285 2.05377 28.3285 1.84613C28.3285 1.37153 28.5658 1.10456 29.0404 1.10456H31.9474C32.511 1.10456 32.8966 1.19355 33.1042 1.40119C33.3415 1.57916 33.5195 1.99444 33.6975 2.55803L38.6808 22.1947L43.3081 2.55803C43.4565 1.96478 43.6344 1.57916 43.8717 1.40119C44.109 1.22321 44.5243 1.10456 45.0582 1.10456H47.4312C47.9948 1.10456 48.3804 1.19355 48.6177 1.40119C48.855 1.57916 49.0627 1.99444 49.1813 2.55803L53.868 22.432L58.9996 2.55803C59.1776 1.96478 59.3853 1.57916 59.5929 1.40119C59.8302 1.22321 60.2158 1.10456 60.7497 1.10456H63.5084C63.983 1.10456 64.2499 1.34186 64.2499 1.84613C64.2499 1.99444 64.2203 2.14275 64.1906 2.32073C64.1609 2.4987 64.1016 2.736 63.983 3.06229L56.8343 25.9915C56.6563 26.5847 56.4487 26.9703 56.2114 27.1483C55.9741 27.3263 55.5884 27.4449 55.0842 27.4449H52.5332C51.9696 27.4449 51.584 27.356 51.3467 27.1483C51.1094 26.9407 50.9018 26.5551 50.7831 25.9618L46.1854 6.82944L41.6174 25.9321C41.4691 26.5254 41.2911 26.911 41.0538 27.1187C40.8165 27.3263 40.4012 27.4153 39.8673 27.4153H37.3163ZM75.4327 28.2162C73.8903 28.2162 72.3478 28.0382 70.8647 27.6822C69.3815 27.3263 68.2247 26.9407 67.4535 26.4957C66.9789 26.2288 66.6526 25.9321 66.5339 25.6652C66.4153 25.3982 66.356 25.1016 66.356 24.8346V23.3218C66.356 22.6989 66.5933 22.4023 67.0382 22.4023C67.2162 22.4023 67.3942 22.432 67.5721 22.4913C67.7501 22.5506 68.0171 22.6693 68.3137 22.7879C69.3222 23.2329 70.4197 23.5888 71.5766 23.8261C72.7631 24.0634 73.9199 24.1821 75.1064 24.1821C76.9752 24.1821 78.4286 23.8558 79.4372 23.2032C80.4457 22.5506 80.9796 21.6014 80.9796 20.3852C80.9796 19.5547 80.7127 18.8725 80.1787 18.3089C79.6448 17.7453 78.6363 17.241 77.1828 16.7664L72.8817 15.4316C70.7164 14.7494 69.1146 13.7408 68.1357 12.406C67.1569 11.1009 66.6526 9.64739 66.6526 8.10493C66.6526 6.8591 66.9196 5.76159 67.4535 4.81239C67.9874 3.86318 68.6993 3.03263 69.5892 2.38005C70.4791 1.69781 71.4876 1.19355 72.6741 0.837599C73.8606 0.481648 75.1064 0.333335 76.4116 0.333335C77.0642 0.333335 77.7464 0.362998 78.399 0.451985C79.0812 0.540973 79.7041 0.659623 80.327 0.778274C80.9203 0.926587 81.4839 1.0749 82.0178 1.25288C82.5517 1.43085 82.967 1.60883 83.2636 1.7868C83.6789 2.0241 83.9755 2.2614 84.1535 2.52837C84.3315 2.76567 84.4205 3.09196 84.4205 3.50723V4.90137C84.4205 5.52429 84.1832 5.85058 83.7382 5.85058C83.5009 5.85058 83.1153 5.73193 82.6111 5.49463C80.9203 4.7234 79.0219 4.33778 76.9158 4.33778C75.2251 4.33778 73.8903 4.60475 72.9707 5.16834C72.0512 5.73193 71.5766 6.59214 71.5766 7.80831C71.5766 8.63886 71.8732 9.35076 72.4665 9.91435C73.0597 10.4779 74.1572 11.0415 75.7293 11.5458L79.9414 12.8806C82.0771 13.5628 83.6196 14.5121 84.5391 15.7282C85.4587 16.9444 85.9036 18.3385 85.9036 19.881C85.9036 21.1565 85.6366 22.3133 85.1324 23.3218C84.5984 24.3304 83.8866 25.2202 82.967 25.9321C82.0475 26.6737 80.95 27.2076 79.6745 27.5933C78.3396 28.0085 76.9455 28.2162 75.4327 28.2162Z" fill="#252F3E"/>
<path fillRule="evenodd" clipRule="evenodd" d="M81.039 42.6322C71.28 49.8402 57.1013 53.6667 44.91 53.6667C27.8243 53.6667 12.4294 47.3486 0.801697 36.848C-0.117844 36.0174 0.712709 34.8903 1.81022 35.5428C14.3872 42.8398 29.9007 47.2596 45.9482 47.2596C56.775 47.2596 68.6697 45.0052 79.6152 40.3778C81.2467 39.6363 82.6408 41.4457 81.039 42.6322Z" fill="#FF9900"/>
<path fillRule="evenodd" clipRule="evenodd" d="M85.1027 38.0048C83.8569 36.403 76.8565 37.2336 73.6827 37.6192C72.7335 37.7378 72.5851 36.9073 73.4454 36.2844C79.0219 32.3689 88.1876 33.4961 89.2555 34.8012C90.3233 36.1361 88.9588 45.3018 83.7382 49.6919C82.9374 50.3741 82.1661 50.0182 82.5221 49.1283C83.7086 46.1917 86.3485 39.5769 85.1027 38.0048Z" fill="#FF9900"/>
</svg>
